PathFileType	4	(X/Y/Z)	Kaydara																																																																																																																																																																																																																												
DataRate	CameraRate	NumFrames	NumMarkers	Units	OrigDataRate	OrigDataStartFrame	OrigNumFrames																																																																																																																																																																																																																								
60	60	4	74	mm	60	802	211																																																																																																																																																																																																																								
Frame#	Time	N_lasi			N_rasi			N_rpsi			N_lpsi			N_fneck			N_bneck			N_fhead			N_rhead			N_lhead			N_rshld			N_relbtop			N_relbext			N_relblow			N_rwrext			N_rwrtop			N_rwrlow			N_lshld			N_lelblow			N_lelbtop			N_lwrext			N_lwrtop			N_lwrlow			N_rtopleg			N_ltopleg			N_rkneefr			N_rkneebk			N_rkneeis			N_lkneefr			N_lknssbk			N_lkneeis			N_rankfr			N_rankis			N_rankbk			N_lankfr			N_lankbk			N_lankis			D_lasi			D_rasi			D_lpsi			D_fneck			D_bneck			D_fhead			D_rhead			D_lhead			D_rshld			D_relbtop			D_relbext			D_relblow			D_rwrext			D_rwrtop			D_rwrlow			D_lshld			D_lelbext			D_lelblow			D_lelbtop			D_lwrext			D_lwrtop			D_lwrlow			D_rtopleg			D_ltopleg			D_rkneefr			D_rkneebk			D_rkneeis			D_lkneefr			D_lknssbk			D_lkneeis			D_rankfr			D_rankis			D_rankbk			D_lankfr			D_lankbk			D_lankis			D_rpsi			N_lelbext		
		X1	Y1	Z1	X2	Y2	Z2	X3	Y3	Z3	X4	Y4	Z4	X5	Y5	Z5	X6	Y6	Z6	X7	Y7	Z7	X8	Y8	Z8	X9	Y9	Z9	X10	Y10	Z10	X11	Y11	Z11	X12	Y12	Z12	X13	Y13	Z13	X14	Y14	Z14	X15	Y15	Z15	X16	Y16	Z16	X17	Y17	Z17	X18	Y18	Z18	X19	Y19	Z19	X20	Y20	Z20	X21	Y21	Z21	X22	Y22	Z22	X23	Y23	Z23	X24	Y24	Z24	X25	Y25	Z25	X26	Y26	Z26	X27	Y27	Z27	X28	Y28	Z28	X29	Y29	Z29	X30	Y30	Z30	X31	Y31	Z31	X32	Y32	Z32	X33	Y33	Z33	X34	Y34	Z34	X35	Y35	Z35	X36	Y36	Z36	X37	Y37	Z37	X38	Y38	Z38	X39	Y39	Z39	X40	Y40	Z40	X41	Y41	Z41	X42	Y42	Z42	X43	Y43	Z43	X44	Y44	Z44	X45	Y45	Z45	X46	Y46	Z46	X47	Y47	Z47	X48	Y48	Z48	X49	Y49	Z49	X50	Y50	Z50	X51	Y51	Z51	X52	Y52	Z52	X53	Y53	Z53	X54	Y54	Z54	X55	Y55	Z55	X56	Y56	Z56	X57	Y57	Z57	X58	Y58	Z58	X59	Y59	Z59	X60	Y60	Z60	X61	Y61	Z61	X62	Y62	Z62	X63	Y63	Z63	X64	Y64	Z64	X65	Y65	Z65	X66	Y66	Z66	X67	Y67	Z67	X68	Y68	Z68	X69	Y69	Z69	X70	Y70	Z70	X71	Y71	Z71	X72	Y72	Z72	X73	Y73	Z73	X74	Y74	Z74
																																																																																																																																																																																																																															
132	13.35	-538.28033	1231.8277	-48.06579	-530.81993	1245.1368	-280.44605	-260.53171	1228.09975	-335.52235	-273.24854	1220.05135	17.59759	-405.26154	1605.15411	-141.77749	-268.88229	1667.53708	-155.84593	-464.78443	1804.21158	-143.9024	-277.83318	1769.72656	-215.03223	-317.15479	1771.64688	-63.57704	-294.47172	1631.10825	-363.31474	-258.30381	1517.94617	-620.97832	-350.63869	1498.9566	-623.03261	-306.29354	1598.08197	-624.38721	-262.31342	1509.1098	-947.50824	-300.65861	1536.13007	-957.239	-340.50812	1512.54868	-944.25255	-263.6322	1616.67755	24.82203	-268.7406	1610.24246	298.63842	-235.02295	1528.75961	304.42278	-213.32094	1577.73163	618.45551	-248.88792	1606.90445	629.60312	-284.52625	1565.60669	626.18519	-434.00764	1046.16257	-414.92012	-369.00799	1011.62346	67.13465	-438.70861	561.26339	-244.81253	-333.88962	580.58708	-314.60497	-374.07429	563.67527	-152.75782	-382.59628	539.21432	-85.08947	-255.12394	555.23922	-29.68548	-262.26875	548.08899	-179.56022	-299.50039	141.39506	-267.38516	-299.84695	154.62263	-187.00375	-218.55482	143.63909	-213.95903	-332.52228	192.76812	-112.44185	-258.28375	185.34651	-72.00384	-294.28375	164.34651	-156.00384	-463.74054	1037.25113	1724.95361	-420.93159	1058.43025	1439.38782	-263.32788	1128.09982	1734.14474	-423.48083	1564.07104	1585.82397	-288.08384	1588.88245	1595.41977	-448.71086	1785.15182	1590.61722	-288.30828	1727.49084	1520.27573	-304.38309	1721.97647	1674.02664	-359.66549	1493.99582	1379.8761	-248.01491	1170.9404	1366.59241	-283.00034	1152.97844	1427.3877	-328.0265	1175.39146	1331.85501	-300.72552	921.65634	1349.71497	-352.21684	923.16765	1323.14194	-373.50487	938.91663	1370.784	-355.48607	1501.19141	1820.979	-304.15695	1162.26814	1774.46869	-325.47073	1201.51741	1869.00894	-256.5856	1179.13841	1830.65598	-334.67648	941.44447	1861.90094	-377.13657	948.20923	1872.52396	-398.92937	961.47751	1827.67426	-332.47871	1005.81802	1400.24506	-323.16875	1006.22215	1791.11526	-373.75378	456.51169	1442.62436	-273.79658	490.84972	1413.10089	-280.66162	460.75977	1534.77661	-367.54417	451.76128	1763.23471	-254.51887	485.98316	1778.33084	-327.01836	442.58423	1672.39868	-324.20086	130.01387	1416.19156	-294.51101	127.59517	1480.69931	-243.89654	127.52209	1415.74387	-325.26634	133.83155	1789.39606	-252.3637	125.87846	1804.21936	-295.62784	122.99653	1730.58472	-229.2766	1143.5318	1517.65213	-327.45571	1525.54779	313.71166
133	13.367	-538.25935	1231.62537	-47.81938	-531.18786	1245.06126	-280.26724	-260.93037	1228.11546	-335.93147	-273.10755	1220.13779	17.20564	-405.71625	1605.32623	-141.83751	-269.37033	1667.73956	-156.03557	-465.34569	1804.11667	-144.00597	-278.39413	1769.88815	-215.10229	-317.5206	1771.82938	-63.65165	-296.33816	1629.62112	-365.74043	-257.29538	1506.04874	-620.71289	-350.04829	1486.04446	-621.90315	-307.61227	1585.17715	-627.69188	-254.05355	1481.24695	-943.78487	-294.09113	1504.00253	-956.57127	-331.97697	1478.57269	-942.62589	-263.73072	1616.64688	24.93849	-268.39176	1609.01154	298.78977	-234.41278	1527.65411	304.30105	-212.12154	1575.58884	618.28419	-247.8388	1604.6347	629.64893	-283.25848	1563.27545	626.14246	-434.59064	1046.17836	-414.92104	-368.81058	1011.66008	67.18657	-438.77907	561.26446	-244.80326	-333.99681	580.63404	-314.66213	-374.17568	563.74916	-152.7859	-382.60647	539.26056	-85.1424	-255.0827	555.29552	-29.81299	-262.31125	548.14739	-179.70978	-299.47809	141.4153	-267.42105	-299.83709	154.64485	-187.0792	-218.55663	143.69522	-214.01896	-332.57034	192.81124	-112.45378	-258.30807	185.38052	-72.03312	-294.30807	164.38052	-156.03312	-463.21354	1037.30797	1725.06622	-421.21429	1058.35716	1439.21295	-262.74506	1128.05382	1733.83453	-423.27747	1564.1214	1585.42862	-287.77857	1588.80844	1594.99634	-448.3474	1785.08179	1591.04279	-288.34024	1727.69104	1519.80347	-303.63443	1721.75766	1673.56491	-359.83574	1493.81012	1379.58893	-248.60882	1170.62119	1366.00998	-283.56787	1152.69699	1426.87057	-328.56766	1175.14771	1331.40305	-301.30026	921.4576	1348.96378	-352.94895	923.00552	1322.5119	-373.9872	938.73901	1370.32455	-356.59859	1501.96823	1820.62683	-305.00042	1163.56705	1776.04156	-326.3298	1202.61032	1869.89227	-256.98956	1180.47081	1832.78168	-333.54717	942.83531	1865.55161	-376.24699	949.14337	1875.13687	-397.52419	961.9487	1830.0032	-332.47871	1005.81802	1400.24506	-322.83291	1006.70052	1791.57028	-373.97701	456.51142	1442.57172	-274.04163	490.84831	1412.83768	-280.66059	460.80555	1534.56116	-367.29599	451.72405	1763.2373	-253.95527	486.12785	1778.54416	-327.04723	442.48737	1672.31415	-324.2408	129.97479	1416.23138	-294.53197	127.60477	1480.69473	-243.91598	127.54489	1415.62744	-325.22873	133.97273	1789.4841	-252.28714	125.85675	1804.03595	-295.6406	122.98902	1730.52399	-229.39487	1143.82004	1516.90964	-326.55243	1523.82416	313.72992
134	13.383	-538.21045	1231.44157	-47.55774	-531.95076	1245.23834	-280.18377	-261.36972	1228.19466	-336.36963	-273.03766	1220.32166	16.74572	-406.15166	1605.45212	-141.88854	-269.83904	1667.89566	-156.21624	-465.96638	1803.97095	-144.03882	-278.98046	1769.91089	-215.25335	-318.1288	1772.06436	-63.53046	-297.97653	1628.1105	-369.04259	-254.51405	1492.09259	-619.47056	-346.51253	1469.8642	-619.36455	-306.30562	1569.30008	-630.00198	-248.25014	1454.25629	-940.63416	-289.75777	1473.30795	-954.90883	-326.03775	1446.67374	-939.21165	-263.81569	1616.72806	25.04287	-267.9311	1607.96158	298.9748	-233.43611	1526.82693	303.96357	-210.64417	1572.75803	618.15468	-246.41376	1601.89789	629.83776	-281.66187	1560.47913	626.21201	-435.08141	1046.38298	-414.99462	-368.36952	1011.65894	67.03473	-438.79322	561.27731	-244.86895	-334.05132	580.69416	-314.7979	-374.15592	563.74271	-152.88828	-382.58495	539.32423	-85.17447	-255.09089	555.3315	-29.9226	-262.35939	548.15472	-179.86425	-299.43447	141.44148	-267.47808	-299.81331	154.66936	-187.21226	-218.56251	143.71525	-214.07234	-332.56416	192.83703	-112.47808	-258.31617	185.40987	-72.09097	-294.31617	164.40987	-156.09097	-462.64236	1037.38243	1725.24734	-421.47591	1058.22495	1439.24667	-261.91673	1128.09937	1733.29468	-423.06091	1564.22546	1585.05783	-287.5042	1588.76633	1594.74106	-447.88738	1785.01175	1591.21506	-288.31789	1727.71866	1519.20914	-302.84298	1721.56113	1673.07159	-359.77222	1493.65173	1379.34967	-248.94955	1170.28091	1365.70084	-283.92628	1152.36038	1426.61743	-328.94379	1174.81506	1331.20621	-301.94729	921.22002	1348.46741	-353.60027	922.77229	1322.22427	-374.55448	938.53027	1370.07935	-357.73262	1502.64633	1820.17456	-306.05181	1164.74144	1777.52411	-327.62272	1203.56987	1870.51254	-257.37541	1181.68762	1834.99054	-332.37366	943.71292	1867.71179	-375.07771	949.80789	1877.42249	-395.89291	962.20642	1832.09381	-332.47871	1005.81802	1400.24506	-321.98624	1007.03156	1792.12921	-374.16103	456.37852	1442.43134	-274.41214	490.79876	1412.71423	-280.60007	460.85922	1534.49982	-367.05845	451.61182	1763.16483	-254.04415	485.8947	1777.6413	-326.91509	442.34051	1672.17255	-324.30683	129.94847	1416.26663	-294.50245	127.60451	1480.7457	-244.00333	127.53215	1415.57602	-325.12539	133.95522	1789.4754	-252.0989	125.81795	1803.82797	-295.68932	122.98591	1730.49438	-229.17614	1143.85872	1516.67877	-325.71854	1522.33185	313.58091
135	13.4	-538.20126	1231.31996	-47.31855	-532.53288	1245.4525	-280.02398	-261.83168	1228.28667	-336.77624	-272.97266	1220.3743	16.3629	-406.71665	1605.69473	-142.15327	-270.43734	1668.16879	-156.6106	-466.61209	1803.80997	-144.09053	-279.65895	1770.01434	-215.4698	-318.70304	1772.34024	-63.7251	-299.22369	1625.64545	-373.74649	-250.31481	1478.13568	-618.23402	-342.04102	1451.7157	-616.9072	-304.2227	1552.48169	-631.87859	-243.87573	1425.13519	-936.63719	-285.81499	1442.73529	-951.73012	-321.38569	1415.8902	-934.92897	-263.95914	1616.97708	25.17826	-267.44076	1607.20703	299.37668	-232.53914	1526.05453	303.71077	-209.03141	1570.18875	618.36452	-244.97625	1598.85544	630.2393	-280.03311	1557.30453	626.30001	-435.31815	1046.69151	-415.07133	-368.0632	1011.69853	66.92557	-438.71365	561.35155	-244.87822	-334.07997	580.70396	-314.93071	-374.05594	563.71975	-153.01267	-382.48196	539.32045	-85.28635	-254.88243	555.39875	-30.17222	-262.35062	548.12897	-180.01816	-299.41811	141.44084	-267.50059	-299.75063	154.64958	-187.30112	-218.55011	143.71552	-214.17212	-332.54318	192.86022	-112.51445	-258.21028	185.41792	-72.21302	-294.21028	164.41792	-156.21302	-462.08714	1037.49123	1725.44083	-421.78818	1058.12119	1439.38583	-261.39177	1128.16383	1732.82867	-422.94128	1564.2868	1584.77692	-287.33885	1588.74069	1594.49356	-447.48547	1785.01221	1591.15662	-288.1797	1727.83112	1518.62396	-302.25222	1721.49994	1672.45453	-359.60346	1493.52631	1379.15176	-249.24723	1169.90265	1365.48355	-284.22293	1152.04582	1426.4502	-329.23939	1174.56398	1331.08871	-302.55131	920.94254	1348.30139	-354.35173	922.58659	1322.25861	-375.23857	938.35289	1370.09567	-359.19235	1503.02704	1819.73358	-306.84252	1165.53864	1778.4697	-328.37563	1203.93074	1870.85556	-257.77992	1182.74849	1836.40228	-331.15044	944.12308	1868.9032	-373.78681	949.96887	1878.70407	-394.94411	962.21222	1833.30048	-332.47871	1005.81802	1400.24506	-321.09436	1007.25929	1792.4292	-374.37046	456.45939	1442.63107	-274.75567	490.70385	1412.63672	-280.70978	460.7972	1534.40231	-366.81705	451.61415	1763.20343	-253.76766	485.92293	1777.41898	-326.80744	442.39574	1672.02896	-324.37737	129.88966	1416.35818	-294.51973	127.55284	1480.76904	-244.05575	127.53196	1415.5101	-325.09495	134.01082	1789.49219	-251.98896	125.79274	1803.7117	-295.74305	122.98435	1730.48233	-229.21551	1144.09744	1516.23169	-324.89716	1521.1319	313.60464
